# Blender v3.3.1 OBJ File: 'water.blend'
# www.blender.org
mtllib water_000045.mtl
o Cube
v 12938.858398 -3484.864990 -12168.722656
v 12938.858398 -676.753174 -12168.722656
v 12938.858398 -3484.864990 12168.722656
v 12938.858398 -676.753174 12168.722656
v -12938.858398 -3484.864990 -12168.722656
v -12938.858398 -676.753174 -12168.722656
v -12938.858398 -3484.864990 12168.722656
v -12938.858398 -676.753174 12168.722656
vt 6.201609 0.500000
vt 6.201609 11.903218
vt 17.604828 11.903218
vt 17.604828 0.500000
vt -5.201609 11.903218
vt -5.201609 23.306437
vt 6.201609 23.306437
vt -5.201609 -22.306437
vt -5.201609 -10.903218
vt 6.201609 -10.903218
vt 6.201609 -22.306437
vt -16.604828 0.500000
vt -16.604828 11.903218
vt -5.201609 0.500000
vn 0.0000 -1.0000 0.0000
vn 0.0000 0.0000 1.0000
vn -1.0000 0.0000 0.0000
vn 0.0000 1.0000 0.0000
vn 1.0000 0.0000 0.0000
vn 0.0000 0.0000 -1.0000
usemtl Material
s off
f 1/1/1 3/2/1 7/3/1 5/4/1
f 4/5/2 8/6/2 7/7/2 3/2/2
f 8/8/3 6/9/3 5/10/3 7/11/3
f 6/12/4 8/13/4 4/5/4 2/14/4
f 2/14/5 4/5/5 3/2/5 1/1/5
f 6/9/6 2/14/6 1/1/6 5/10/6
