# 3ds Max Wavefront OBJ Exporter v0.97b - (c)2007 guruware
# File Created: 13.12.2017 00:56:19

mtllib tire.mtl

#
# object tire
#

v  -3.7523 -4.3330 -11.9049
v  -3.7523 -0.0000 -12.6689
v  4.1958 -0.0000 -12.6689
v  4.1958 -4.3330 -11.9049
v  -3.7523 -8.1434 -9.7050
v  4.1958 -8.1434 -9.7050
v  -3.7523 -10.9716 -6.3345
v  4.1958 -10.9716 -6.3345
v  -3.7523 -12.4765 -2.1999
v  4.1958 -12.4765 -2.1999
v  -3.7523 -12.4765 2.2000
v  4.1958 -12.4765 2.2000
v  -3.7523 -10.9716 6.3345
v  4.1958 -10.9716 6.3345
v  -3.7523 -8.1434 9.7050
v  4.1958 -8.1434 9.7050
v  -3.7523 -4.3330 11.9049
v  4.1958 -4.3330 11.9049
v  -3.7523 -0.0000 12.6689
v  4.1958 -0.0000 12.6689
v  -3.7523 4.3330 11.9049
v  4.1958 4.3330 11.9049
v  -3.7523 8.1434 9.7050
v  4.1958 8.1434 9.7050
v  -3.7523 10.9716 6.3345
v  4.1958 10.9716 6.3345
v  -3.7523 12.4765 2.2000
v  4.1958 12.4765 2.2000
v  -3.7523 12.4765 -2.1999
v  4.1958 12.4765 -2.1999
v  -3.7523 10.9716 -6.3345
v  4.1958 10.9716 -6.3345
v  -3.7523 8.1434 -9.7050
v  4.1958 8.1434 -9.7050
v  -3.7523 4.3330 -11.9049
v  4.1958 4.3330 -11.9049
v  -4.1958 -3.9413 -10.8285
v  -4.1958 -0.0000 -11.5235
v  -4.1958 3.9413 -10.8285
v  -4.1958 7.4072 -8.8275
v  -4.1958 9.9796 -5.7617
v  -4.1958 11.3484 -2.0010
v  -4.1958 11.3484 2.0011
v  -4.1958 9.9796 5.7618
v  -4.1958 7.4071 8.8275
v  -4.1958 3.9413 10.8285
v  -4.1958 -0.0000 11.5235
v  -4.1958 -3.9413 10.8285
v  -4.1958 -7.4071 8.8275
v  -4.1958 -9.9796 5.7617
v  -4.1958 -11.3484 2.0010
v  -4.1958 -11.3484 -2.0010
v  -4.1958 -9.9796 -5.7617
v  -4.1958 -7.4071 -8.8275
v  -3.8961 -0.0000 -0.0000
v  4.1958 -0.0000 -0.0000
# 56 vertices

vn 0.0000 -0.3420 -0.9397
vn 0.0000 -0.0000 -1.0000
vn 0.0000 -0.6428 -0.7660
vn 0.0000 -0.8660 -0.5000
vn 0.0000 -0.9848 -0.1737
vn 0.0000 -0.9848 0.1737
vn 0.0000 -0.8660 0.5000
vn 0.0000 -0.6428 0.7660
vn 0.0000 -0.3420 0.9397
vn 0.0000 0.0000 1.0000
vn -0.0000 -0.0000 1.0000
vn -0.0000 0.3420 0.9397
vn -0.0000 0.6428 0.7660
vn 0.0000 0.6428 0.7660
vn 0.0000 0.8660 0.5000
vn 0.0000 0.9848 0.1736
vn 0.0000 0.9848 -0.1736
vn 0.0000 0.8660 -0.5000
vn 0.0000 0.6428 -0.7660
vn 0.0000 0.3420 -0.9397
vn -0.9325 -0.0000 -0.3611
vn -0.9325 -0.1235 -0.3393
vn -0.9814 -0.0656 -0.1803
vn -0.9814 -0.0000 -0.1919
vn -0.9325 0.1235 -0.3393
vn -0.9814 0.0656 -0.1803
vn -0.9325 0.2321 -0.2766
vn -0.9814 0.1233 -0.1470
vn -0.9325 0.3127 -0.1805
vn -0.9814 0.1662 -0.0959
vn -0.9325 0.3556 -0.0627
vn -0.9814 0.1890 -0.0333
vn -0.9325 0.3556 0.0627
vn -0.9814 0.1890 0.0333
vn -0.9325 0.3127 0.1805
vn -0.9814 0.1662 0.0959
vn -0.9325 0.2321 0.2766
vn -0.9814 0.1233 0.1470
vn -0.9325 0.1235 0.3393
vn -0.9814 0.0656 0.1803
vn -0.9325 0.0000 0.3611
vn -0.9814 0.0000 0.1919
vn -0.9325 -0.1235 0.3393
vn -0.9814 -0.0656 0.1803
vn -0.9325 -0.2321 0.2766
vn -0.9814 -0.1233 0.1470
vn -0.9325 -0.3127 0.1805
vn -0.9814 -0.1662 0.0959
vn -0.9325 -0.3556 0.0627
vn -0.9814 -0.1890 0.0333
vn -0.9325 -0.3556 -0.0627
vn -0.9814 -0.1890 -0.0333
vn -0.9325 -0.3127 -0.1805
vn -0.9814 -0.1662 -0.0959
vn -0.9325 -0.2321 -0.2766
vn -0.9814 -0.1233 -0.1470
vn -1.0000 0.0000 0.0000
vn 1.0000 0.0000 -0.0000
# 58 vertex normals

vt 0.9457 0.3976 0.0000
vt 0.9457 0.3716 0.0000
vt 0.9927 0.3716 0.0000
vt 0.9927 0.3976 0.0000
vt 0.9457 0.4235 0.0000
vt 0.9927 0.4235 0.0000
vt 0.9457 0.4495 0.0000
vt 0.9927 0.4495 0.0000
vt 0.9457 0.4755 0.0000
vt 0.9927 0.4755 0.0000
vt 0.9458 0.0339 0.0000
vt 0.9458 0.0079 0.0000
vt 0.9927 0.0079 0.0000
vt 0.9927 0.0339 0.0000
vt 0.9458 0.0599 0.0000
vt 0.9927 0.0599 0.0000
vt 0.9458 0.0858 0.0000
vt 0.9927 0.0858 0.0000
vt 0.9458 0.1118 0.0000
vt 0.9927 0.1118 0.0000
vt 0.9458 0.1378 0.0000
vt 0.9927 0.1378 0.0000
vt 0.9458 0.1638 0.0000
vt 0.9927 0.1638 0.0000
vt 0.9458 0.1897 0.0000
vt 0.9927 0.1897 0.0000
vt 0.9458 0.2157 0.0000
vt 0.9927 0.2157 0.0000
vt 0.9458 0.2417 0.0000
vt 0.9927 0.2417 0.0000
vt 0.9458 0.2677 0.0000
vt 0.9927 0.2677 0.0000
vt 0.9458 0.2936 0.0000
vt 0.9927 0.2936 0.0000
vt 0.9458 0.3196 0.0000
vt 0.9927 0.3196 0.0000
vt 0.9457 0.3456 0.0000
vt 0.9927 0.3456 0.0000
vt 0.8154 0.0735 0.0000
vt 0.8192 0.0520 0.0000
vt 0.8249 0.0541 0.0000
vt 0.8215 0.0735 0.0000
vt 0.8192 0.0950 0.0000
vt 0.8249 0.0930 0.0000
vt 0.8301 0.1140 0.0000
vt 0.8348 0.1101 0.0000
vt 0.8469 0.1280 0.0000
vt 0.8499 0.1228 0.0000
vt 0.8674 0.1355 0.0000
vt 0.8685 0.1295 0.0000
vt 0.8893 0.1355 0.0000
vt 0.8882 0.1295 0.0000
vt 0.9098 0.1280 0.0000
vt 0.9068 0.1228 0.0000
vt 0.9265 0.1140 0.0000
vt 0.9219 0.1101 0.0000
vt 0.9374 0.0950 0.0000
vt 0.9318 0.0930 0.0000
vt 0.9412 0.0735 0.0000
vt 0.9352 0.0735 0.0000
vt 0.9374 0.0520 0.0000
vt 0.9318 0.0541 0.0000
vt 0.9265 0.0331 0.0000
vt 0.9219 0.0370 0.0000
vt 0.9098 0.0190 0.0000
vt 0.9068 0.0243 0.0000
vt 0.8893 0.0116 0.0000
vt 0.8882 0.0175 0.0000
vt 0.8674 0.0116 0.0000
vt 0.8685 0.0175 0.0000
vt 0.8469 0.0190 0.0000
vt 0.8499 0.0243 0.0000
vt 0.8301 0.0331 0.0000
vt 0.8348 0.0370 0.0000
vt 0.8783 0.0735 0.0000
vt 0.9402 0.0735 0.0000
vt 0.8784 0.0735 0.0000
vt 0.9365 0.0524 0.0000
vt 0.9257 0.0338 0.0000
vt 0.9093 0.0200 0.0000
vt 0.8891 0.0127 0.0000
vt 0.8677 0.0127 0.0000
vt 0.8475 0.0200 0.0000
vt 0.8311 0.0338 0.0000
vt 0.8203 0.0524 0.0000
vt 0.8166 0.0735 0.0000
vt 0.8203 0.0947 0.0000
vt 0.8311 0.1133 0.0000
vt 0.8475 0.1271 0.0000
vt 0.8677 0.1344 0.0000
vt 0.8891 0.1344 0.0000
vt 0.9093 0.1271 0.0000
vt 0.9257 0.1133 0.0000
vt 0.9365 0.0947 0.0000
# 94 texture coords

g tire
usemtl wire_134110008
s 1
f 1/1/1 2/2/2 3/3/2 4/4/1 
f 5/5/3 1/1/1 4/4/1 6/6/3 
f 7/7/4 5/5/3 6/6/3 8/8/4 
f 9/9/5 7/7/4 8/8/4 10/10/5 
f 11/11/6 9/12/5 10/13/5 12/14/6 
f 13/15/7 11/11/6 12/14/6 14/16/7 
f 15/17/8 13/15/7 14/16/7 16/18/8 
f 17/19/9 15/17/8 16/18/8 18/20/9 
f 19/21/10 17/19/9 18/20/9 20/22/11 
f 21/23/12 19/21/10 20/22/11 22/24/12 
f 23/25/13 21/23/12 22/24/12 24/26/14 
f 25/27/15 23/25/13 24/26/14 26/28/15 
f 27/29/16 25/27/15 26/28/15 28/30/16 
f 29/31/17 27/29/16 28/30/16 30/32/17 
f 31/33/18 29/31/17 30/32/17 32/34/18 
f 33/35/19 31/33/18 32/34/18 34/36/19 
f 35/37/20 33/35/19 34/36/19 36/38/20 
f 2/2/2 35/37/20 36/38/20 3/3/2 
s 2
f 2/39/21 1/40/22 37/41/23 38/42/24 
f 35/43/25 2/39/21 38/42/24 39/44/26 
f 33/45/27 35/43/25 39/44/26 40/46/28 
f 31/47/29 33/45/27 40/46/28 41/48/30 
f 29/49/31 31/47/29 41/48/30 42/50/32 
f 27/51/33 29/49/31 42/50/32 43/52/34 
f 25/53/35 27/51/33 43/52/34 44/54/36 
f 23/55/37 25/53/35 44/54/36 45/56/38 
f 21/57/39 23/55/37 45/56/38 46/58/40 
f 19/59/41 21/57/39 46/58/40 47/60/42 
f 17/61/43 19/59/41 47/60/42 48/62/44 
f 15/63/45 17/61/43 48/62/44 49/64/46 
f 13/65/47 15/63/45 49/64/46 50/66/48 
f 11/67/49 13/65/47 50/66/48 51/68/50 
f 9/69/51 11/67/49 51/68/50 52/70/52 
f 7/71/53 9/69/51 52/70/52 53/72/54 
f 5/73/55 7/71/53 53/72/54 54/74/56 
f 1/40/22 5/73/55 54/74/56 37/41/23 
f 37/41/23 55/75/57 38/42/24 
f 38/42/24 55/75/57 39/44/26 
f 39/44/26 55/75/57 40/46/28 
f 40/46/28 55/75/57 41/48/30 
f 41/48/30 55/75/57 42/50/32 
f 42/50/32 55/75/57 43/52/34 
f 43/52/34 55/75/57 44/54/36 
f 44/54/36 55/75/57 45/56/38 
f 45/56/38 55/75/57 46/58/40 
f 46/58/40 55/75/57 47/60/42 
f 47/60/42 55/75/57 48/62/44 
f 48/62/44 55/75/57 49/64/46 
f 49/64/46 55/75/57 50/66/48 
f 50/66/48 55/75/57 51/68/50 
f 51/68/50 55/75/57 52/70/52 
f 52/70/52 55/75/57 53/72/54 
f 53/72/54 55/75/57 54/74/56 
f 54/74/56 55/75/57 37/41/23 
f 3/76/58 56/77/58 4/78/58 
f 4/78/58 56/77/58 6/79/58 
f 6/79/58 56/77/58 8/80/58 
f 8/80/58 56/77/58 10/81/58 
f 10/81/58 56/77/58 12/82/58 
f 12/82/58 56/77/58 14/83/58 
f 14/83/58 56/77/58 16/84/58 
f 16/84/58 56/77/58 18/85/58 
f 18/85/58 56/77/58 20/86/58 
f 20/86/58 56/77/58 22/87/58 
f 22/87/58 56/77/58 24/88/58 
f 24/88/58 56/77/58 26/89/58 
f 26/89/58 56/77/58 28/90/58 
f 28/90/58 56/77/58 30/91/58 
f 30/91/58 56/77/58 32/92/58 
f 32/92/58 56/77/58 34/93/58 
f 34/93/58 56/77/58 36/94/58 
f 36/94/58 56/77/58 3/76/58 
# 36 polygons - 36 triangles

