# 3ds Max Wavefront OBJ Exporter v0.97b - (c)2007 guruware
# File Created: 13.12.2017 01:00:21

mtllib tire.mtl

#
# object tire
#

v  -4.4507 0.0001 15.0791
v  -4.4507 -5.1573 14.1697
v  5.3836 -5.1573 14.1697
v  5.3836 0.0001 15.0791
v  -4.4507 -9.6926 11.5512
v  5.3836 -9.6926 11.5512
v  -4.4507 -13.0588 7.5395
v  5.3836 -13.0588 7.5395
v  -4.4507 -14.8499 2.6185
v  5.3836 -14.8499 2.6185
v  -4.4507 -14.8499 -2.6184
v  5.3836 -14.8499 -2.6184
v  -4.4507 -13.0588 -7.5395
v  5.3836 -13.0588 -7.5395
v  -4.4507 -9.6926 -11.5512
v  5.3836 -9.6926 -11.5512
v  -4.4507 -5.1573 -14.1697
v  5.3836 -5.1573 -14.1697
v  -4.4507 0.0001 -15.0791
v  5.3836 0.0001 -15.0791
v  -4.4507 5.1573 -14.1697
v  5.3836 5.1573 -14.1697
v  -4.4507 9.6927 -11.5512
v  5.3836 9.6927 -11.5512
v  -4.4507 13.0589 -7.5395
v  5.3836 13.0589 -7.5395
v  -4.4507 14.8499 -2.6184
v  5.3836 14.8499 -2.6184
v  -4.4507 14.8499 2.6185
v  5.3836 14.8499 2.6185
v  -4.4507 13.0589 7.5395
v  5.3836 13.0589 7.5395
v  -4.4507 9.6927 11.5512
v  5.3836 9.6927 11.5512
v  -4.4507 5.1573 14.1697
v  5.3836 5.1573 14.1697
v  -5.3836 0.0001 13.7157
v  -5.3836 -4.6910 12.8886
v  -5.3836 4.6911 12.8886
v  -5.3836 8.8163 10.5069
v  -5.3836 11.8781 6.8579
v  -5.3836 13.5073 2.3817
v  -5.3836 13.5073 -2.3817
v  -5.3836 11.8781 -6.8578
v  -5.3836 8.8163 -10.5068
v  -5.3836 4.6911 -12.8885
v  -5.3836 0.0001 -13.7157
v  -5.3836 -4.6910 -12.8885
v  -5.3836 -8.8162 -10.5068
v  -5.3836 -11.8781 -6.8578
v  -5.3836 -13.5073 -2.3817
v  -5.3836 -13.5073 2.3817
v  -5.3836 -11.8781 6.8579
v  -5.3836 -8.8162 10.5069
v  -5.3836 0.0001 -0.0000
v  5.3836 0.0001 -0.0000
# 56 vertices

vn 0.0000 0.0000 1.0000
vn 0.0000 -0.3420 0.9397
vn 0.0000 -0.6428 0.7660
vn 0.0000 -0.8660 0.5000
vn 0.0000 -0.9848 0.1736
vn 0.0000 -0.9848 -0.1736
vn 0.0000 -0.8660 -0.5000
vn 0.0000 -0.6428 -0.7660
vn 0.0000 -0.3420 -0.9397
vn 0.0000 0.0000 -1.0000
vn 0.0000 0.3420 -0.9397
vn 0.0000 0.6428 -0.7660
vn 0.0000 0.8660 -0.5000
vn 0.0000 0.9848 -0.1736
vn 0.0000 0.9848 0.1736
vn 0.0000 0.8660 0.5000
vn 0.0000 0.6428 0.7660
vn 0.0000 0.3420 0.9397
vn -0.8253 -0.1932 0.5307
vn -0.8253 -0.0000 0.5647
vn -0.9457 -0.0000 0.3249
vn -0.9457 -0.1111 0.3054
vn -0.8252 0.1932 0.5307
vn -0.9457 0.1111 0.3054
vn -0.8252 0.3630 0.4326
vn -0.9457 0.2089 0.2489
vn -0.8252 0.4891 0.2824
vn -0.9457 0.2814 0.1625
vn -0.8253 0.5562 0.0981
vn -0.9457 0.3200 0.0564
vn -0.8252 0.5562 -0.0981
vn -0.9457 0.3200 -0.0564
vn -0.8253 0.4891 -0.2824
vn -0.9457 0.2814 -0.1625
vn -0.8253 0.3630 -0.4326
vn -0.9457 0.2089 -0.2489
vn -0.8253 0.1932 -0.5307
vn -0.9457 0.1111 -0.3053
vn -0.8253 -0.0000 -0.5647
vn -0.9457 -0.0000 -0.3249
vn -0.8253 -0.1932 -0.5307
vn -0.9457 -0.1111 -0.3053
vn -0.8253 -0.3630 -0.4326
vn -0.9457 -0.2089 -0.2489
vn -0.8253 -0.4891 -0.2824
vn -0.9457 -0.2814 -0.1625
vn -0.8252 -0.5562 -0.0981
vn -0.9457 -0.3200 -0.0564
vn -0.8253 -0.5562 0.0981
vn -0.9457 -0.3200 0.0564
vn -0.8253 -0.4891 0.2824
vn -0.9457 -0.2814 0.1625
vn -0.8253 -0.3630 0.4326
vn -0.9457 -0.2089 0.2489
vn -1.0000 0.0000 -0.0000
vn 1.0000 0.0000 -0.0000
# 56 vertex normals

vt 0.9391 0.5940 0.0000
vt 0.9391 0.5630 0.0000
vt 0.9973 0.5630 0.0000
vt 0.9973 0.5940 0.0000
vt 0.9391 0.5319 0.0000
vt 0.9973 0.5319 0.0000
vt 0.9391 0.5009 0.0000
vt 0.9973 0.5009 0.0000
vt 0.9391 0.4698 0.0000
vt 0.9973 0.4698 0.0000
vt 0.9391 0.4388 0.0000
vt 0.9973 0.4388 0.0000
vt 0.9391 0.9975 0.0000
vt 0.9391 0.9665 0.0000
vt 0.9973 0.9665 0.0000
vt 0.9973 0.9975 0.0000
vt 0.9391 0.9355 0.0000
vt 0.9973 0.9355 0.0000
vt 0.9391 0.9044 0.0000
vt 0.9973 0.9044 0.0000
vt 0.9391 0.8734 0.0000
vt 0.9973 0.8734 0.0000
vt 0.9391 0.8423 0.0000
vt 0.9973 0.8423 0.0000
vt 0.9391 0.8113 0.0000
vt 0.9973 0.8113 0.0000
vt 0.9391 0.7803 0.0000
vt 0.9973 0.7803 0.0000
vt 0.9391 0.7492 0.0000
vt 0.9973 0.7492 0.0000
vt 0.9391 0.7182 0.0000
vt 0.9973 0.7182 0.0000
vt 0.9391 0.6871 0.0000
vt 0.9973 0.6871 0.0000
vt 0.9391 0.6561 0.0000
vt 0.9973 0.6561 0.0000
vt 0.9391 0.6250 0.0000
vt 0.9973 0.6250 0.0000
vt 0.9274 0.8778 0.0000
vt 0.9327 0.9078 0.0000
vt 0.9233 0.9078 0.0000
vt 0.9186 0.8810 0.0000
vt 0.9274 0.9377 0.0000
vt 0.9186 0.9345 0.0000
vt 0.9122 0.9641 0.0000
vt 0.9050 0.9580 0.0000
vt 0.8889 0.9836 0.0000
vt 0.8842 0.9755 0.0000
vt 0.8603 0.9940 0.0000
vt 0.8586 0.9848 0.0000
vt 0.8299 0.9940 0.0000
vt 0.8315 0.9848 0.0000
vt 0.8013 0.9836 0.0000
vt 0.8060 0.9755 0.0000
vt 0.7780 0.9641 0.0000
vt 0.7852 0.9580 0.0000
vt 0.7628 0.9377 0.0000
vt 0.7716 0.9345 0.0000
vt 0.7575 0.9078 0.0000
vt 0.7669 0.9078 0.0000
vt 0.7628 0.8778 0.0000
vt 0.7716 0.8810 0.0000
vt 0.7780 0.8515 0.0000
vt 0.7852 0.8575 0.0000
vt 0.8013 0.8319 0.0000
vt 0.8060 0.8400 0.0000
vt 0.8299 0.8215 0.0000
vt 0.8315 0.8308 0.0000
vt 0.8603 0.8215 0.0000
vt 0.8586 0.8308 0.0000
vt 0.8889 0.8319 0.0000
vt 0.8842 0.8400 0.0000
vt 0.9122 0.8515 0.0000
vt 0.9050 0.8575 0.0000
vt 0.8451 0.9078 0.0000
vt 0.7647 0.9076 0.0000
vt 0.7696 0.8800 0.0000
vt 0.8453 0.9076 0.0000
vt 0.7836 0.8558 0.0000
vt 0.8050 0.8378 0.0000
vt 0.8313 0.8282 0.0000
vt 0.8593 0.8282 0.0000
vt 0.8856 0.8378 0.0000
vt 0.9070 0.8558 0.0000
vt 0.9210 0.8800 0.0000
vt 0.9259 0.9076 0.0000
vt 0.9210 0.9351 0.0000
vt 0.9070 0.9594 0.0000
vt 0.8856 0.9773 0.0000
vt 0.8593 0.9869 0.0000
vt 0.8313 0.9869 0.0000
vt 0.8050 0.9773 0.0000
vt 0.7836 0.9594 0.0000
vt 0.7696 0.9351 0.0000
# 94 texture coords

g tire
usemtl wire_134006006
s 1
f 1/1/1 2/2/2 3/3/2 4/4/1 
f 2/2/2 5/5/3 6/6/3 3/3/2 
f 5/5/3 7/7/4 8/8/4 6/6/3 
f 7/7/4 9/9/5 10/10/5 8/8/4 
f 9/9/5 11/11/6 12/12/6 10/10/5 
f 11/13/6 13/14/7 14/15/7 12/16/6 
f 13/14/7 15/17/8 16/18/8 14/15/7 
f 15/17/8 17/19/9 18/20/9 16/18/8 
f 17/19/9 19/21/10 20/22/10 18/20/9 
f 19/21/10 21/23/11 22/24/11 20/22/10 
f 21/23/11 23/25/12 24/26/12 22/24/11 
f 23/25/12 25/27/13 26/28/13 24/26/12 
f 25/27/13 27/29/14 28/30/14 26/28/13 
f 27/29/14 29/31/15 30/32/15 28/30/14 
f 29/31/15 31/33/16 32/34/16 30/32/15 
f 31/33/16 33/35/17 34/36/17 32/34/16 
f 33/35/17 35/37/18 36/38/18 34/36/17 
f 35/37/18 1/1/1 4/4/1 36/38/18 
s 2
f 2/39/19 1/40/20 37/41/21 38/42/22 
f 1/40/20 35/43/23 39/44/24 37/41/21 
f 35/43/23 33/45/25 40/46/26 39/44/24 
f 33/45/25 31/47/27 41/48/28 40/46/26 
f 31/47/27 29/49/29 42/50/30 41/48/28 
f 29/49/29 27/51/31 43/52/32 42/50/30 
f 27/51/31 25/53/33 44/54/34 43/52/32 
f 25/53/33 23/55/35 45/56/36 44/54/34 
f 23/55/35 21/57/37 46/58/38 45/56/36 
f 21/57/37 19/59/39 47/60/40 46/58/38 
f 19/59/39 17/61/41 48/62/42 47/60/40 
f 17/61/41 15/63/43 49/64/44 48/62/42 
f 15/63/43 13/65/45 50/66/46 49/64/44 
f 13/65/45 11/67/47 51/68/48 50/66/46 
f 11/67/47 9/69/49 52/70/50 51/68/48 
f 9/69/49 7/71/51 53/72/52 52/70/50 
f 7/71/51 5/73/53 54/74/54 53/72/52 
f 5/73/53 2/39/19 38/42/22 54/74/54 
f 38/42/22 37/41/21 55/75/55 
f 37/41/21 39/44/24 55/75/55 
f 39/44/24 40/46/26 55/75/55 
f 40/46/26 41/48/28 55/75/55 
f 41/48/28 42/50/30 55/75/55 
f 42/50/30 43/52/32 55/75/55 
f 43/52/32 44/54/34 55/75/55 
f 44/54/34 45/56/36 55/75/55 
f 45/56/36 46/58/38 55/75/55 
f 46/58/38 47/60/40 55/75/55 
f 47/60/40 48/62/42 55/75/55 
f 48/62/42 49/64/44 55/75/55 
f 49/64/44 50/66/46 55/75/55 
f 50/66/46 51/68/48 55/75/55 
f 51/68/48 52/70/50 55/75/55 
f 52/70/50 53/72/52 55/75/55 
f 53/72/52 54/74/54 55/75/55 
f 54/74/54 38/42/22 55/75/55 
f 4/76/56 3/77/56 56/78/56 
f 3/77/56 6/79/56 56/78/56 
f 6/79/56 8/80/56 56/78/56 
f 8/80/56 10/81/56 56/78/56 
f 10/81/56 12/82/56 56/78/56 
f 12/82/56 14/83/56 56/78/56 
f 14/83/56 16/84/56 56/78/56 
f 16/84/56 18/85/56 56/78/56 
f 18/85/56 20/86/56 56/78/56 
f 20/86/56 22/87/56 56/78/56 
f 22/87/56 24/88/56 56/78/56 
f 24/88/56 26/89/56 56/78/56 
f 26/89/56 28/90/56 56/78/56 
f 28/90/56 30/91/56 56/78/56 
f 30/91/56 32/92/56 56/78/56 
f 32/92/56 34/93/56 56/78/56 
f 34/93/56 36/94/56 56/78/56 
f 36/94/56 4/76/56 56/78/56 
# 36 polygons - 36 triangles

